<svg width="496" height="662" viewBox="0 0 496 662" fill="none" xmlns="http://www.w3.org/2000/svg">
<g opacity="0.15">
<path d="M494.093 640.22V32.4458L467.851 11.1889H297.773L282.783 0.587402H31.8744L0.952148 29.3277L0.952148 632.283L15.6344 647.704H234.931L254.294 657.682L478.47 657.682L494.093 640.22Z" fill="url(#paint0_linear_334_2516)"/>
</g>
<path opacity="0.2" d="M291.729 0.768074L302.911 7.4823H465.218L458.414 0.689453L291.729 0.768074Z" fill="white"/>
<path opacity="0.2" d="M48.3916 653.956H233.808L248.691 661.173H56.0458L48.3916 653.956Z" fill="white"/>
<path d="M52.6442 661.173H45.4153L38.084 653.956H45.3129L52.6442 661.173Z" fill="#F8C306"/>
<path d="M42.4939 661.173H35.2649L27.9258 653.956H35.1547L42.4939 661.173Z" fill="#F8C306"/>
<path d="M16.8641 0.0688477H29.125L1.16211 26.0216V14.3464L16.8641 0.0688477Z" fill="#FFD026"/>
<path opacity="0.15" d="M494.289 254.349L484.406 264.223V651.243L495.092 640.574L494.289 254.349Z" fill="white"/>
<path d="M495.093 624.195L461.166 658.419H479.139L495.093 640.541V624.195Z" fill="#FFD026" fill-opacity="0.5"/>
<path opacity="0.15" d="M5.71387 637.017H106.312L116.777 647.46H16.0167L5.71387 637.017Z" fill="white"/>
<defs>
<linearGradient id="paint0_linear_334_2516" x1="286.024" y1="0.587402" x2="286.024" y2="657.682" gradientUnits="userSpaceOnUse">
<stop stop-color="#F8C306"/>
<stop offset="1" stop-opacity="0"/>
</linearGradient>
</defs>
</svg>
