<svg width="16" height="17" viewBox="0 0 16 17" fill="none" xmlns="http://www.w3.org/2000/svg">
<g id="affiliate">
<path id="Vector" d="M14.6433 3.50426C14.6433 3.50426 14.7607 2.31444 14.4733 2.02715M14.4733 2.02715C14.1843 1.73815 12.9964 1.85823 12.9964 1.85823M14.4733 2.02715L12.667 3.83347" stroke="#65FF9E" stroke-width="1.5" stroke-linecap="round" stroke-linejoin="round"/>
<path id="Vector_2" d="M14.6433 13.4957C14.6433 13.4957 14.7607 14.6855 14.4733 14.9728M14.4733 14.9728C14.1843 15.2618 12.9964 15.1418 12.9964 15.1418M14.4733 14.9728L12.667 13.1665" stroke="#65FF9E" stroke-width="1.5" stroke-linecap="round" stroke-linejoin="round"/>
<path id="Vector_3" d="M1.52666 2.02714L3.33301 3.83348M1.52666 2.02714C1.81565 1.73816 3.00363 1.85823 3.00363 1.85823M1.52666 2.02714C1.23936 2.31444 1.35675 3.50426 1.35675 3.50426" stroke="#65FF9E" stroke-width="1.5" stroke-linecap="round" stroke-linejoin="round"/>
<path id="Vector_4" d="M1.52666 14.9728L3.33301 13.1665M1.52666 14.9728C1.81565 15.2618 3.00363 15.1418 3.00363 15.1418M1.52666 14.9728C1.23936 14.6856 1.35675 13.4958 1.35675 13.4958" stroke="#65FF9E" stroke-width="1.5" stroke-linecap="round" stroke-linejoin="round"/>
<path id="Subtract" fill-rule="evenodd" clip-rule="evenodd" d="M2.58301 8.50016C2.58301 5.50862 5.00813 3.0835 7.99967 3.0835C10.9912 3.0835 13.4163 5.50862 13.4163 8.50016C13.4163 11.4917 10.9912 13.9168 7.99967 13.9168C5.00813 13.9168 2.58301 11.4917 2.58301 8.50016ZM8.44202 6.13818C8.44202 5.86204 8.21816 5.63818 7.94202 5.63818C7.66587 5.63818 7.44202 5.86204 7.44202 6.13818V6.25579C7.175 6.31619 6.93176 6.42522 6.72909 6.57625C6.40605 6.81699 6.16602 7.18507 6.16602 7.62596C6.16602 8.0101 6.31231 8.38363 6.68627 8.63233C7.01918 8.85374 7.47222 8.93343 7.99935 8.93343C8.47667 8.93343 8.66259 9.04335 8.73057 9.10727C8.79141 9.16447 8.83268 9.25539 8.83268 9.42516C8.83268 9.49453 8.80746 9.56865 8.69775 9.64404C8.57411 9.729 8.33625 9.81443 7.94202 9.81443C7.6809 9.81443 7.54834 9.78788 7.46033 9.75412C7.37591 9.72172 7.29348 9.66816 7.1515 9.53969C6.94675 9.35441 6.63056 9.37019 6.44528 9.57494C6.25999 9.77969 6.27577 10.0959 6.48053 10.2812C6.65829 10.442 6.84859 10.5905 7.1021 10.6877C7.21073 10.7294 7.32327 10.7588 7.44202 10.7787V10.8394C7.44202 11.1155 7.66587 11.3394 7.94202 11.3394C8.21816 11.3394 8.44202 11.1155 8.44202 10.8394V10.7768C8.75703 10.7264 9.03601 10.6249 9.2641 10.4682C9.62068 10.2232 9.83268 9.85266 9.83268 9.42516C9.83268 9.09814 9.75002 8.69319 9.41556 8.37872C9.08825 8.07098 8.6075 7.93343 7.99935 7.93343C7.54108 7.93343 7.32745 7.85779 7.24004 7.79966C7.19369 7.76883 7.16602 7.73863 7.16602 7.62596C7.16602 7.57001 7.19578 7.4756 7.32664 7.37808C7.4569 7.28101 7.66779 7.20101 7.94202 7.20101C8.17223 7.20101 8.31862 7.24086 8.41978 7.28875C8.52088 7.33661 8.6062 7.40633 8.69747 7.50936C8.88057 7.71607 9.19657 7.73521 9.40328 7.55211C9.60999 7.36901 9.62913 7.05301 9.44603 6.8463C9.29496 6.67575 9.10569 6.50706 8.84764 6.38491C8.72224 6.32555 8.58756 6.28045 8.44202 6.24977V6.13818Z" fill="#65FF9E"/>
</g>
</svg>
