<svg width="130" height="37" viewBox="0 0 130 37" fill="none" xmlns="http://www.w3.org/2000/svg">
<g opacity="0.5">
<g clip-path="url(#clip0_2033_480)">
<path d="M8.51594 26.6885L4.78594 30.4185L1.05594 26.6885L0.0859375 27.6585L3.81594 31.3885L0.0859375 35.1185L1.05594 36.0985L4.78594 32.3585L8.51594 36.0985L9.49594 35.1185L5.75594 31.3885L9.49594 27.6585L8.51594 26.6885Z" fill="white"/>
<path d="M56.4964 26.6885L52.7664 30.4185L49.0364 26.6885L48.0664 27.6585L51.7964 31.3885L48.0664 35.1185L49.0364 36.0985L52.7664 32.3585L56.4964 36.0985L57.4664 35.1185L53.7364 31.3885L57.4664 27.6585L56.4964 26.6885Z" fill="#B900FF"/>
<path d="M80.4869 26.6885L76.7569 30.4185L73.0269 26.6885L72.0469 27.6585L75.7869 31.3885L72.0469 35.1185L73.0269 36.0985L76.7569 32.3585L80.4869 36.0985L81.4569 35.1185L77.7269 31.3885L81.4569 27.6585L80.4869 26.6885Z" fill="white"/>
<path d="M104.475 26.6885L100.735 30.4185L97.0052 26.6885L96.0352 27.6585L99.7652 31.3885L96.0352 35.1185L97.0052 36.0985L100.735 32.3585L104.475 36.0985L105.445 35.1185L101.715 31.3885L105.445 27.6585L104.475 26.6885Z" fill="white"/>
<path d="M128.455 26.6885L124.725 30.4185L120.995 26.6885L120.025 27.6585L123.755 31.3885L120.025 35.1185L120.995 36.0985L124.725 32.3585L128.455 36.0985L129.435 35.1185L125.695 31.3885L129.435 27.6585L128.455 26.6885Z" fill="#B900FF"/>
</g>
<g clip-path="url(#clip1_2033_480)">
<path d="M56.4964 0.730469L52.7664 4.46047L49.0364 0.730469L48.0664 1.70047L51.7964 5.43047L48.0664 9.16047L49.0364 10.1405L52.7664 6.40047L56.4964 10.1405L57.4664 9.16047L53.7364 5.43047L57.4664 1.70047L56.4964 0.730469Z" fill="white"/>
<path d="M80.4869 0.730469L76.7569 4.46047L73.0269 0.730469L72.0469 1.70047L75.7869 5.43047L72.0469 9.16047L73.0269 10.1405L76.7569 6.40047L80.4869 10.1405L81.4569 9.16047L77.7269 5.43047L81.4569 1.70047L80.4869 0.730469Z" fill="white"/>
<path d="M104.475 0.730469L100.735 4.46047L97.0052 0.730469L96.0352 1.70047L99.7652 5.43047L96.0352 9.16047L97.0052 10.1405L100.735 6.40047L104.475 10.1405L105.445 9.16047L101.715 5.43047L105.445 1.70047L104.475 0.730469Z" fill="#B900FF"/>
</g>
</g>
<defs>
<clipPath id="clip0_2033_480">
<rect width="129.35" height="9.41" fill="white" transform="translate(0.0859375 26.6885)"/>
</clipPath>
<clipPath id="clip1_2033_480">
<rect width="129.35" height="9.41" fill="white" transform="translate(0.0859375 0.730469)"/>
</clipPath>
</defs>
</svg>
