<svg width="31" height="29" viewBox="0 0 31 29" fill="none" xmlns="http://www.w3.org/2000/svg">
<path d="M2.06148 7.43494C2.06148 9.85008 2.88679 11.5927 4.51261 12.616C5.84569 13.4566 7.39047 13.5827 8.19428 13.5827C8.38945 13.5827 8.54657 13.573 8.65573 13.5666C8.65573 13.5666 8.40103 15.1896 9.63156 16.7932H9.57532C7.4434 16.7932 0.490234 17.2281 0.490234 22.8182C0.490234 28.502 6.87609 28.7914 8.1579 28.7914C8.25879 28.7914 8.31833 28.7881 8.31833 28.7881C8.33156 28.7881 8.42253 28.7914 8.57965 28.7914C9.40166 28.7914 11.527 28.6911 13.5001 27.7519C16.0604 26.5395 17.3588 24.4234 17.3588 21.4716C17.3588 18.6199 15.3806 16.9225 13.9368 15.681C13.0552 14.9229 12.2927 14.2698 12.2927 13.6345C12.2927 12.9878 12.8501 12.5012 13.553 11.8853C14.6926 10.8912 15.7677 9.47342 15.7677 6.79316C15.7677 4.43783 15.4551 2.85522 13.5282 1.85133C13.7284 1.7511 14.4396 1.67836 14.7902 1.62986C15.8338 1.49084 17.3604 1.33241 17.3604 0.499883V0.339844H9.75395C9.67787 0.343077 2.06148 0.617893 2.06148 7.43494ZM14.3403 22.005C14.4859 24.2779 12.4962 25.9543 9.50751 26.1661C6.47253 26.3843 3.97508 25.049 3.82954 22.7777C3.75842 21.6849 4.24964 20.618 5.21058 19.7661C6.18475 18.9045 7.52278 18.371 8.97825 18.2659C9.15026 18.2562 9.32062 18.2465 9.49097 18.2465C12.301 18.2481 14.203 19.8615 14.3403 22.005ZM12.3539 5.87819C13.0999 8.44529 11.9735 11.1256 10.1774 11.6218C9.97059 11.6782 9.75689 11.7064 9.54224 11.7059C7.89823 11.7059 6.2691 10.0796 5.66376 7.83746C5.32635 6.58301 5.35447 5.48051 5.74149 4.42328C6.12024 3.3806 6.80497 2.68063 7.66502 2.44299C7.87177 2.38641 8.08512 2.35731 8.30179 2.35731C10.2865 2.35731 11.5634 3.16236 12.3539 5.87819ZM25.2348 11.3325V6.48278H21.9269V11.3325H16.9651V14.5656H21.9269V19.4153H25.2348V14.5656H30.1966V11.3325H25.2348Z" fill="#00FF00" fill-opacity="0.8"/>
</svg>
