<svg width="768" height="1080" viewBox="0 0 768 1080" fill="none" xmlns="http://www.w3.org/2000/svg">
<g opacity="0.15">
<rect width="38.4239" height="6.14807" transform="matrix(-1 0 0 1 767.707 376.542)" fill="#5D1A76"/>
<rect width="38.4239" height="6.14807" transform="matrix(-1 0 0 1 194.957 702.507)" fill="#5D1A76"/>
<rect width="38.4239" height="6.14807" transform="matrix(-1 0 0 1 293.453 1007.1)" fill="#5D1A76"/>
<rect width="20.0186" height="6.14807" transform="matrix(-1 0 0 1 176.551 1073.85)" fill="white"/>
<rect width="38.4239" height="6.14807" transform="matrix(-1 0 0 1 70.7344 567.261)" fill="#5D1A76"/>
<rect width="13.8335" height="13.8335" transform="matrix(-1 0 0 1 363.918 -0.00488281)" fill="#5D1A76"/>
<rect width="13.8335" height="13.8335" transform="matrix(-1 0 0 1 28.5215 46.876)" fill="white"/>
<rect width="13.8335" height="13.8335" transform="matrix(-1 0 0 1 216.475 23.1748)" fill="white"/>
<rect width="13.8335" height="13.8335" transform="matrix(-1 0 0 1 408.768 175.331)" fill="white"/>
<rect width="13.8335" height="13.8335" transform="matrix(-1 0 0 1 441.166 923.604)" fill="white"/>
<rect width="7.59128" height="7.59128" transform="matrix(-1 0 0 1 99.5723 506.462)" fill="white"/>
<rect width="7.59128" height="7.59128" transform="matrix(-1 0 0 1 125.75 506.462)" fill="#5D1A76"/>
<rect width="7.59128" height="7.59128" transform="matrix(-1 0 0 1 7.77148 760.681)" fill="#5D1A76"/>
<rect width="7.59128" height="7.59128" transform="matrix(-1 0 0 1 102.691 278.417)" fill="white"/>
<rect width="7.59128" height="7.59128" transform="matrix(-1 0 0 1 274.24 60.71)" fill="#5D1A76"/>
<rect width="7.59128" height="7.59128" transform="matrix(-1 0 0 1 224.066 167.739)" fill="white"/>
<rect width="7.59128" height="7.59128" transform="matrix(-1 0 0 1 441.84 45.5576)" fill="#5D1A76"/>
<rect width="7.59128" height="7.59128" transform="matrix(-1 0 0 1 18.4844 380.431)" fill="#5D1A76"/>
<rect width="7.59128" height="7.59128" transform="matrix(-1 0 0 1 83.7832 966.487)" fill="#5D1A76"/>
<rect width="7.59128" height="7.59128" transform="matrix(-1 0 0 1 125.75 865.401)" fill="white"/>
<rect width="7.59128" height="7.59128" transform="matrix(-1 0 0 1 125.75 879.183)" fill="#5D1A76"/>
<rect width="7.59128" height="7.59128" transform="matrix(-1 0 0 1 63.7773 980.267)" fill="#5D1A76"/>
</g>
</svg>
