<svg width="135" height="135" viewBox="0 0 135 135" fill="none" xmlns="http://www.w3.org/2000/svg">
<g filter="url(#filter0_b_2274_135)">
<path d="M64.9155 2.18318C66.3741 1.34104 68.1712 1.34104 69.6299 2.18318L122.89 32.9327C124.348 33.7748 125.247 35.3311 125.247 37.0154V98.5144C125.247 100.199 124.348 101.755 122.89 102.597L69.6299 133.347C68.1712 134.189 66.3741 134.189 64.9155 133.347L11.6559 102.597C10.1972 101.755 9.29869 100.199 9.29869 98.5144V37.0154C9.29869 35.3311 10.1972 33.7748 11.6559 32.9327L64.9155 2.18318Z" fill="#00FF00" fill-opacity="0.05"/>
<path d="M69.8722 1.76337C68.2636 0.834646 66.2817 0.834646 64.6731 1.76337L11.4135 32.5129C9.80488 33.4416 8.81394 35.1579 8.81394 37.0154V98.5144C8.81394 100.372 9.80488 102.088 11.4135 103.017L64.6731 133.766C66.2817 134.695 68.2636 134.695 69.8722 133.766L123.132 103.017C124.74 102.088 125.731 100.372 125.731 98.5144V37.0154C125.731 35.1579 124.74 33.4416 123.132 32.5129L69.8722 1.76337Z" stroke="#00FF00" stroke-width="0.969496"/>
</g>
<path d="M64.9145 10.1724C66.3731 9.3303 68.1702 9.3303 69.6288 10.1724L115.969 36.9272C117.428 37.7694 118.327 39.3257 118.327 41.01V94.5196C118.327 96.2039 117.428 97.7602 115.969 98.6023L69.6288 125.357C68.1702 126.199 66.3731 126.199 64.9145 125.357L18.5738 98.6023C17.1152 97.7602 16.2166 96.2039 16.2166 94.5196V41.01C16.2166 39.3257 17.1152 37.7694 18.5738 36.9272L64.9145 10.1724Z" fill="url(#paint0_linear_2274_135)"/>
<defs>
<filter id="filter0_b_2274_135" x="-1.0986" y="-8.84665" width="136.744" height="153.223" filterUnits="userSpaceOnUse" color-interpolation-filters="sRGB">
<feFlood flood-opacity="0" result="BackgroundImageFix"/>
<feGaussianBlur in="BackgroundImageFix" stdDeviation="4.71434"/>
<feComposite in2="SourceAlpha" operator="in" result="effect1_backgroundBlur_2274_135"/>
<feBlend mode="normal" in="SourceGraphic" in2="effect1_backgroundBlur_2274_135" result="shape"/>
</filter>
<linearGradient id="paint0_linear_2274_135" x1="67.2716" y1="-39.9303" x2="67.2716" y2="126.718" gradientUnits="userSpaceOnUse">
<stop stop-color="#00FF00"/>
<stop offset="1" stop-color="#084B08" stop-opacity="0"/>
</linearGradient>
</defs>
</svg>
