<svg width="78" height="25" viewBox="0 0 78 25" fill="none" xmlns="http://www.w3.org/2000/svg">
<path d="M22.9626 0.976562H0.920737C0.784803 0.976562 0.654429 1.03053 0.558348 1.12671C0.462164 1.22279 0.408203 1.35316 0.408203 1.4892V23.5311C0.408203 23.667 0.462164 23.7974 0.558348 23.8935C0.654429 23.9897 0.784803 24.0436 0.920737 24.0436H22.9626C23.0987 24.0436 23.229 23.9897 23.3251 23.8935C23.4213 23.7974 23.4753 23.667 23.4753 23.5311V1.4892C23.4753 1.35316 23.4213 1.22279 23.3251 1.12671C23.229 1.03053 23.0987 0.976562 22.9626 0.976562ZM15.7862 15.842C15.7862 15.978 15.7323 16.1083 15.6361 16.2045C15.54 16.3006 15.4096 16.3547 15.2737 16.3547H8.60979C8.47386 16.3547 8.34349 16.3006 8.2473 16.2045C8.15122 16.1083 8.09726 15.978 8.09726 15.842V9.17815C8.09726 9.04222 8.15122 8.91184 8.2473 8.81576C8.34349 8.71958 8.47386 8.66562 8.60979 8.66562H15.2737C15.4096 8.66562 15.54 8.71958 15.6361 8.81576C15.7323 8.91184 15.7862 9.04222 15.7862 9.17815V15.842Z" fill="white"/>
<path d="M69.1081 8.66699H62.4443C62.1612 8.66699 61.9316 8.89643 61.9316 9.17953V15.8434C61.9316 16.1265 62.1612 16.356 62.4443 16.356H69.1081C69.3912 16.356 69.6207 16.1265 69.6207 15.8434V9.17953C69.6207 8.89643 69.3912 8.66699 69.1081 8.66699Z" fill="white"/>
<path d="M61.4186 0.976562H54.7548C54.4717 0.976562 54.2422 1.206 54.2422 1.4892V8.15298C54.2422 8.43607 54.4717 8.66562 54.7548 8.66562H61.4186C61.7018 8.66562 61.9312 8.43607 61.9312 8.15298V1.4892C61.9312 1.206 61.7018 0.976562 61.4186 0.976562Z" fill="white"/>
<path d="M76.7937 0.976562H70.1298C69.8467 0.976562 69.6172 1.206 69.6172 1.4892V8.15298C69.6172 8.43607 69.8467 8.66562 70.1298 8.66562H76.7937C77.0768 8.66562 77.3062 8.43607 77.3062 8.15298V1.4892C77.3062 1.206 77.0768 0.976562 76.7937 0.976562Z" fill="white"/>
<path d="M61.4186 16.3545H54.7548C54.4717 16.3545 54.2422 16.5839 54.2422 16.867V23.5309C54.2422 23.814 54.4717 24.0436 54.7548 24.0436H61.4186C61.7018 24.0436 61.9312 23.814 61.9312 23.5309V16.867C61.9312 16.5839 61.7018 16.3545 61.4186 16.3545Z" fill="white"/>
<path d="M76.7937 16.3545H70.1298C69.8467 16.3545 69.6172 16.5839 69.6172 16.867V23.5309C69.6172 23.814 69.8467 24.0436 70.1298 24.0436H76.7937C77.0768 24.0436 77.3062 23.814 77.3062 23.5309V16.867C77.3062 16.5839 77.0768 16.3545 76.7937 16.3545Z" fill="white"/>
<path d="M49.8756 0.976562H43.2119C42.9288 0.976562 42.6992 1.206 42.6992 1.4892V8.15298C42.6992 8.43607 42.9288 8.66562 43.2119 8.66562H49.8756C50.1587 8.66562 50.3883 8.43607 50.3883 8.15298V1.4892C50.3883 1.206 50.1587 0.976562 49.8756 0.976562Z" fill="white"/>
<path d="M49.8756 16.3545H43.2119C42.9288 16.3545 42.6992 16.5839 42.6992 16.867V23.5309C42.6992 23.814 42.9288 24.0436 43.2119 24.0436H49.8756C50.1587 24.0436 50.3883 23.814 50.3883 23.5309V16.867C50.3883 16.5839 50.1587 16.3545 49.8756 16.3545Z" fill="white"/>
<path d="M42.6965 9.17239C42.6965 9.03645 42.6424 8.90608 42.5463 8.81C42.4501 8.71381 42.3198 8.65985 42.1838 8.65985H35.0074V1.4892C35.0074 1.35316 34.9534 1.22279 34.8573 1.12671C34.7611 1.03053 34.6307 0.976562 34.4948 0.976562H27.831C27.695 0.976562 27.5646 1.03053 27.4685 1.12671C27.3723 1.22279 27.3184 1.35316 27.3184 1.4892V23.5196C27.3184 23.6555 27.3723 23.7859 27.4685 23.882C27.5646 23.9781 27.695 24.0321 27.831 24.0321H34.4948C34.6307 24.0321 34.7611 23.9781 34.8573 23.882C34.9534 23.7859 35.0074 23.6555 35.0074 23.5196V16.3489H42.1838C42.3198 16.3489 42.4501 16.2948 42.5463 16.1988C42.6424 16.1026 42.6965 15.9722 42.6965 15.8363V9.17239Z" fill="white"/>
</svg>
