<svg width="40" height="12" viewBox="0 0 40 12" fill="none" xmlns="http://www.w3.org/2000/svg">
<path d="M12.2816 0.163574H1.17715C1.10867 0.163574 1.04299 0.19076 0.994586 0.239216C0.94613 0.287621 0.918945 0.353301 0.918945 0.421834V11.5263C0.918945 11.5947 0.94613 11.6604 0.994586 11.7088C1.04299 11.7573 1.10867 11.7845 1.17715 11.7845H12.2816C12.3501 11.7845 12.4158 11.7573 12.4642 11.7088C12.5126 11.6604 12.5398 11.5947 12.5398 11.5263V0.421834C12.5398 0.353301 12.5126 0.287621 12.4642 0.239216C12.4158 0.19076 12.3501 0.163574 12.2816 0.163574ZM8.66619 7.65261C8.66619 7.72109 8.639 7.78677 8.59055 7.83523C8.54214 7.88363 8.47646 7.91087 8.40798 7.91087H5.0508C4.98232 7.91087 4.91664 7.88363 4.86818 7.83523C4.81978 7.78677 4.79259 7.72109 4.79259 7.65261V4.29543C4.79259 4.22695 4.81978 4.16127 4.86818 4.11286C4.91664 4.06441 4.98232 4.03722 5.0508 4.03722H8.40798C8.47646 4.03722 8.54214 4.06441 8.59055 4.11286C8.639 4.16127 8.66619 4.22695 8.66619 4.29543V7.65261Z" fill="white"/>
<path d="M35.5294 4.03784H32.1723C32.0297 4.03784 31.9141 4.15343 31.9141 4.29605V7.65323C31.9141 7.79585 32.0297 7.91149 32.1723 7.91149H35.5294C35.6721 7.91149 35.7877 7.79585 35.7877 7.65323V4.29605C35.7877 4.15343 35.6721 4.03784 35.5294 4.03784Z" fill="white"/>
<path d="M31.6544 0.163574H28.2973C28.1547 0.163574 28.0391 0.279163 28.0391 0.421834V3.77896C28.0391 3.92158 28.1547 4.03722 28.2973 4.03722H31.6544C31.7971 4.03722 31.9127 3.92158 31.9127 3.77896V0.421834C31.9127 0.279163 31.7971 0.163574 31.6544 0.163574Z" fill="white"/>
<path d="M39.4016 0.163574H36.0444C35.9018 0.163574 35.7861 0.279163 35.7861 0.421834V3.77896C35.7861 3.92158 35.9018 4.03722 36.0444 4.03722H39.4016C39.5442 4.03722 39.6598 3.92158 39.6598 3.77896V0.421834C39.6598 0.279163 39.5442 0.163574 39.4016 0.163574Z" fill="white"/>
<path d="M31.6544 7.91138H28.2973C28.1547 7.91138 28.0391 8.02697 28.0391 8.16958V11.5268C28.0391 11.6694 28.1547 11.785 28.2973 11.785H31.6544C31.7971 11.785 31.9127 11.6694 31.9127 11.5268V8.16958C31.9127 8.02697 31.7971 7.91138 31.6544 7.91138Z" fill="white"/>
<path d="M39.4016 7.91138H36.0444C35.9018 7.91138 35.7861 8.02697 35.7861 8.16958V11.5268C35.7861 11.6694 35.9018 11.785 36.0444 11.785H39.4016C39.5442 11.785 39.6598 11.6694 39.6598 11.5268V8.16958C39.6598 8.02697 39.5442 7.91138 39.4016 7.91138Z" fill="white"/>
<path d="M25.839 0.163574H22.4819C22.3393 0.163574 22.2236 0.279163 22.2236 0.421834V3.77896C22.2236 3.92158 22.3393 4.03722 22.4819 4.03722H25.839C25.9816 4.03722 26.0973 3.92158 26.0973 3.77896V0.421834C26.0973 0.279163 25.9816 0.163574 25.839 0.163574Z" fill="white"/>
<path d="M25.839 7.91138H22.4819C22.3393 7.91138 22.2236 8.02697 22.2236 8.16958V11.5268C22.2236 11.6694 22.3393 11.785 22.4819 11.785H25.839C25.9816 11.785 26.0973 11.6694 26.0973 11.5268V8.16958C26.0973 8.02697 25.9816 7.91138 25.839 7.91138Z" fill="white"/>
<path d="M22.2239 4.29252C22.2239 4.22404 22.1966 4.15836 22.1482 4.10996C22.0998 4.0615 22.0341 4.03432 21.9656 4.03432H18.3502V0.421834C18.3502 0.3533 18.323 0.287621 18.2746 0.239216C18.2261 0.19076 18.1604 0.163574 18.0919 0.163574H14.7348C14.6663 0.163574 14.6006 0.19076 14.5522 0.239216C14.5037 0.287621 14.4766 0.3533 14.4766 0.421834V11.5204C14.4766 11.5889 14.5037 11.6546 14.5522 11.703C14.6006 11.7515 14.6663 11.7787 14.7348 11.7787H18.0919C18.1604 11.7787 18.2261 11.7515 18.2746 11.703C18.323 11.6546 18.3502 11.5889 18.3502 11.5204V7.90796H21.9656C22.0341 7.90796 22.0998 7.88072 22.1482 7.83232C22.1966 7.78386 22.2239 7.71818 22.2239 7.6497V4.29252Z" fill="white"/>
</svg>
