<svg width="921" height="1038" viewBox="0 0 921 1038" fill="none" xmlns="http://www.w3.org/2000/svg">
<rect x="274.883" y="105.788" width="34.0726" height="7.04928" fill="#5D1A76"/>
<rect x="894.953" y="301.335" width="19.8042" height="7.04928" fill="#5D1A76"/>
<rect x="170.951" y="304.862" width="34.0726" height="7.04928" fill="#5D1A76"/>
<rect x="0.0917969" y="826.483" width="34.0726" height="7.04928" fill="#5D1A76"/>
<rect x="834.359" y="606.886" width="34.0726" height="7.04928" fill="#5D1A76"/>
<rect x="547.156" y="-0.00488281" width="12.2669" height="15.8612" fill="#5D1A76"/>
<rect x="323.535" y="33.1436" width="12.2669" height="15.8612" fill="#313131"/>
<rect x="676.633" y="47.5771" width="12.2669" height="15.8612" fill="#313131"/>
<rect x="628.773" y="216.993" width="12.2669" height="15.8612" fill="#313131"/>
<rect x="763.814" y="714.14" width="12.2669" height="15.8612" fill="#313131"/>
<rect x="780.297" y="601.702" width="6.73161" height="8.70405" fill="#313131"/>
<rect x="757.082" y="601.702" width="6.73161" height="8.70405" fill="#5D1A76"/>
<rect x="888.223" y="725.647" width="6.73161" height="8.70405" fill="#5D1A76"/>
<rect x="302.225" y="893.19" width="6.73161" height="8.70405" fill="#5D1A76"/>
<rect x="777.531" y="340.233" width="6.73161" height="8.70405" fill="#313131"/>
<rect x="625.408" y="90.6123" width="6.73161" height="8.70405" fill="#5D1A76"/>
<rect x="762.492" y="26.2256" width="6.73161" height="8.70405" fill="#313131"/>
<rect x="459.072" y="90.6123" width="6.73161" height="8.70405" fill="#313131"/>
<rect x="302.225" y="908.987" width="6.73161" height="8.70405" fill="#5D1A76"/>
<rect x="777.531" y="356.034" width="6.73161" height="8.70405" fill="#5D1A76"/>
<rect x="737.391" y="993.106" width="6.73161" height="8.70405" fill="#313131"/>
<rect x="914.09" y="1013.26" width="6.73161" height="8.70405" fill="#5D1A76"/>
<rect x="892.859" y="1029.06" width="6.73161" height="8.70405" fill="#313131"/>
<rect x="737.391" y="1008.91" width="6.73161" height="8.70405" fill="#5D1A76"/>
<rect x="914.09" y="1029.06" width="6.73161" height="8.70405" fill="#5D1A76"/>
</svg>
