<svg width="62" height="98" viewBox="0 0 62 98" fill="none" xmlns="http://www.w3.org/2000/svg">
<g opacity="0.5">
<path d="M3.66882 0.516727L0.923828 3.26172L3.66882 6.00671L6.41382 3.26172L3.66882 0.516727Z" fill="#B900FF"/>
<path d="M22.1688 0.508915L19.4238 3.25391L22.1688 5.9989L24.9138 3.25391L22.1688 0.508915Z" fill="#E3E3E3"/>
<path d="M40.6688 0.508906L37.9238 3.25391L40.6688 5.9989L43.4138 3.2539L40.6688 0.508906Z" fill="#E3E3E3"/>
<path d="M59.1669 0.509882L56.4219 3.25488L59.1669 5.99988L61.9119 3.25488L59.1669 0.509882Z" fill="#B900FF"/>
<path d="M3.66882 13.548L0.923828 16.293L3.66882 19.038L6.41382 16.293L3.66882 13.548Z" fill="#E3E3E3"/>
<path d="M22.1688 13.5392L19.4238 16.2842L22.1688 19.0292L24.9138 16.2842L22.1688 13.5392Z" fill="#E3E3E3"/>
<path d="M40.6688 13.5392L37.9238 16.2842L40.6688 19.0292L43.4138 16.2842L40.6688 13.5392Z" fill="#E3E3E3"/>
<path d="M59.1669 13.5402L56.4219 16.2852L59.1669 19.0302L61.9119 16.2852L59.1669 13.5402Z" fill="#E3E3E3"/>
<path d="M3.66882 26.5783L0.923828 29.3232L3.66882 32.0682L6.41382 29.3232L3.66882 26.5783Z" fill="#E3E3E3"/>
<path d="M22.1688 26.5695L19.4238 29.3145L22.1688 32.0594L24.9138 29.3145L22.1688 26.5695Z" fill="#E3E3E3"/>
<path d="M40.6688 26.5695L37.9238 29.3145L40.6688 32.0594L43.4138 29.3144L40.6688 26.5695Z" fill="#E3E3E3"/>
<path d="M59.1669 26.5704L56.4219 29.3154L59.1669 32.0604L61.9119 29.3154L59.1669 26.5704Z" fill="#E3E3E3"/>
<path d="M3.66882 39.6085L0.923828 42.3535L3.66882 45.0985L6.41382 42.3535L3.66882 39.6085Z" fill="#E3E3E3"/>
<path d="M22.1688 39.6007L19.4238 42.3457L22.1688 45.0907L24.9138 42.3457L22.1688 39.6007Z" fill="#E3E3E3"/>
<path d="M40.6688 39.6007L37.9238 42.3457L40.6688 45.0907L43.4138 42.3457L40.6688 39.6007Z" fill="#B900FF"/>
<path d="M59.1669 39.6017L56.4219 42.3467L59.1669 45.0917L61.9119 42.3467L59.1669 39.6017Z" fill="#E3E3E3"/>
<path d="M3.66882 52.6388L0.923828 55.3838L3.66882 58.1288L6.41382 55.3838L3.66882 52.6388Z" fill="#E3E3E3"/>
<path d="M22.1688 52.631L19.4238 55.376L22.1688 58.121L24.9138 55.376L22.1688 52.631Z" fill="#E3E3E3"/>
<path d="M40.6688 52.631L37.9238 55.376L40.6688 58.121L43.4138 55.376L40.6688 52.631Z" fill="#B900FF"/>
<path d="M59.1669 52.632L56.4219 55.377L59.1669 58.1219L61.9119 55.3769L59.1669 52.632Z" fill="#E3E3E3"/>
<path d="M3.66882 65.67L0.923828 68.415L3.66882 71.16L6.41382 68.415L3.66882 65.67Z" fill="#E3E3E3"/>
<path d="M22.1688 65.6613L19.4238 68.4062L22.1688 71.1512L24.9138 68.4063L22.1688 65.6613Z" fill="#E3E3E3"/>
<path d="M40.6688 65.6612L37.9238 68.4062L40.6688 71.1512L43.4138 68.4062L40.6688 65.6612Z" fill="#E3E3E3"/>
<path d="M59.1669 65.6622L56.4219 68.4072L59.1669 71.1522L61.9119 68.4072L59.1669 65.6622Z" fill="#E3E3E3"/>
<path d="M3.66882 78.7003L0.923828 81.4453L3.66882 84.1903L6.41382 81.4453L3.66882 78.7003Z" fill="#E3E3E3"/>
<path d="M22.1688 78.6915L19.4238 81.4365L22.1688 84.1815L24.9138 81.4365L22.1688 78.6915Z" fill="#B900FF"/>
<path d="M40.6688 78.6915L37.9238 81.4365L40.6688 84.1815L43.4138 81.4365L40.6688 78.6915Z" fill="#E3E3E3"/>
<path d="M59.1669 78.6925L56.4219 81.4375L59.1669 84.1825L61.9119 81.4375L59.1669 78.6925Z" fill="#E3E3E3"/>
<path d="M3.66882 91.7306L0.923828 94.4756L3.66882 97.2206L6.41382 94.4756L3.66882 91.7306Z" fill="#E3E3E3"/>
<path d="M22.1688 91.7228L19.4238 94.4678L22.1688 97.2128L24.9138 94.4678L22.1688 91.7228Z" fill="#B900FF"/>
<path d="M40.6688 91.7228L37.9238 94.4678L40.6688 97.2128L43.4138 94.4678L40.6688 91.7228Z" fill="#E3E3E3"/>
<path d="M59.1669 91.7237L56.4219 94.4688L59.1669 97.2137L61.9119 94.4687L59.1669 91.7237Z" fill="#E3E3E3"/>
</g>
</svg>
