<svg width="921" height="1039" viewBox="0 0 921 1039" fill="none" xmlns="http://www.w3.org/2000/svg">
<rect x="274.883" y="106.559" width="34.0726" height="7.04928" fill="#084B08"/>
<rect x="894.953" y="302.105" width="19.8042" height="7.04928" fill="#084B08"/>
<rect x="170.951" y="305.633" width="34.0726" height="7.04928" fill="#084B08"/>
<rect x="0.0917969" y="827.254" width="34.0726" height="7.04928" fill="#084B08"/>
<rect x="834.359" y="607.656" width="34.0726" height="7.04928" fill="#084B08"/>
<rect x="547.158" y="0.765625" width="12.2669" height="15.8612" fill="#084B08"/>
<rect x="323.535" y="33.9141" width="12.2669" height="15.8612" fill="#313131"/>
<rect x="676.633" y="48.3477" width="12.2669" height="15.8612" fill="#313131"/>
<rect x="628.775" y="217.764" width="12.2669" height="15.8612" fill="#313131"/>
<rect x="763.814" y="714.91" width="12.2669" height="15.8612" fill="#313131"/>
<rect x="780.297" y="602.473" width="6.73161" height="8.70405" fill="#313131"/>
<rect x="757.082" y="602.473" width="6.73161" height="8.70405" fill="#084B08"/>
<rect x="888.223" y="726.418" width="6.73161" height="8.70405" fill="#084B08"/>
<rect x="302.225" y="893.961" width="6.73161" height="8.70405" fill="#084B08"/>
<rect x="777.529" y="341.004" width="6.73161" height="8.70405" fill="#313131"/>
<rect x="625.408" y="91.3828" width="6.73161" height="8.70405" fill="#084B08"/>
<rect x="762.494" y="26.9961" width="6.73161" height="8.70405" fill="#313131"/>
<rect x="459.072" y="91.3828" width="6.73161" height="8.70405" fill="#313131"/>
<rect x="302.225" y="909.758" width="6.73161" height="8.70405" fill="#084B08"/>
<rect x="777.529" y="356.805" width="6.73161" height="8.70405" fill="#084B08"/>
<rect x="737.391" y="993.877" width="6.73161" height="8.70405" fill="#313131"/>
<rect x="914.09" y="1014.03" width="6.73161" height="8.70405" fill="#084B08"/>
<rect x="892.859" y="1029.83" width="6.73161" height="8.70405" fill="#313131"/>
<rect x="737.391" y="1009.68" width="6.73161" height="8.70405" fill="#084B08"/>
<rect x="914.09" y="1029.83" width="6.73161" height="8.70405" fill="#084B08"/>
</svg>
