<svg width="16" height="17" viewBox="0 0 16 17" fill="none" xmlns="http://www.w3.org/2000/svg">
<g id="share-01">
<path id="Vector" d="M13.5951 5.85437L12.4305 4.84299C11.5914 4.11427 11.2625 3.72227 10.8081 3.86085C10.2415 4.03365 10.428 5.12398 10.428 5.49208C9.54707 5.49208 8.6312 5.42433 7.76287 5.56549C4.89635 6.03153 4 8.07099 4 10.2683C4.81131 9.77092 5.62183 9.21632 6.59693 8.98585C7.81413 8.69812 9.17353 8.83539 10.428 8.83539C10.428 9.20352 10.2415 10.2939 10.8081 10.4667C11.3229 10.6237 11.5914 10.2132 12.4305 9.48452L13.5951 8.47312C14.3095 7.85279 14.6667 7.54259 14.6667 7.16375C14.6667 6.78492 14.3095 6.47474 13.5951 5.85437Z" fill="#00FF00" stroke="#00FF00" stroke-width="1.5" stroke-linecap="round" stroke-linejoin="round"/>
<path id="Vector_2" d="M7.04474 2.5C4.47124 2.50463 3.12363 2.56768 2.26241 3.42715C1.33301 4.35468 1.33301 5.8475 1.33301 8.83313C1.33301 11.8188 1.33301 13.3116 2.26241 14.2391C3.19181 15.1667 4.68766 15.1667 7.67934 15.1667C10.6711 15.1667 12.1669 15.1667 13.0963 14.2391C13.7434 13.5933 13.9399 12.6735 13.9997 11.1667" stroke="#00FF00" stroke-width="1.5" stroke-linecap="round" stroke-linejoin="round"/>
</g>
</svg>
