<svg width="36" height="29" viewBox="0 0 36 29" fill="none" xmlns="http://www.w3.org/2000/svg">
<path d="M32.0885 7.53525C32.1115 7.8426 32.1115 8.14819 32.1115 8.45378C32.1115 17.8059 24.9448 28.5823 11.8475 28.5823C7.81238 28.5823 4.06372 27.4215 0.90918 25.4053C1.48209 25.4702 2.03378 25.4931 2.62968 25.4931C5.83548 25.5008 8.9505 24.436 11.4726 22.4705C9.98629 22.4438 8.54545 21.9568 7.35129 21.0774C6.15713 20.198 5.26927 18.9701 4.81168 17.5653C5.25197 17.6303 5.69403 17.6742 6.15731 17.6742C6.79564 17.6742 7.43752 17.5864 8.03341 17.4336C6.42035 17.1101 4.96989 16.2417 3.92866 14.976C2.88742 13.7103 2.31969 12.1255 2.322 10.491V10.4032C3.27155 10.9284 4.37316 11.2568 5.5402 11.3007C4.56252 10.6554 3.76085 9.7798 3.20672 8.75198C2.65259 7.72415 2.36323 6.57608 2.36444 5.41017C2.36444 4.09649 2.71632 2.89169 3.33343 1.84144C5.12314 4.02803 7.3553 5.81686 9.88535 7.09207C12.4154 8.36729 15.1869 9.10046 18.0204 9.2441C17.9108 8.71722 17.8436 8.17102 17.8436 7.62307C17.8431 6.69393 18.027 5.77382 18.3848 4.91533C18.7426 4.05683 19.2672 3.27679 19.9287 2.6198C20.5902 1.9628 21.3755 1.44173 22.2399 1.08638C23.1042 0.731033 24.0306 0.548367 24.9661 0.548829C27.0172 0.548829 28.8686 1.40237 30.17 2.7828C31.7645 2.47654 33.2937 1.89838 34.6896 1.07395C34.1581 2.70871 33.0447 4.09491 31.5581 4.97286C32.9723 4.81265 34.3544 4.44326 35.6586 3.87695C34.6845 5.28741 33.4775 6.52425 32.0885 7.53525Z" fill="#CC44FF" fill-opacity="0.8"/>
</svg>
