<svg width="44" height="48" viewBox="0 0 44 48" fill="none" xmlns="http://www.w3.org/2000/svg">
<path d="M42.5078 34.9356C41.319 33.6101 40.035 32.3618 38.7808 31.1016C37.8476 30.1684 36.8193 29.3184 35.9574 28.3317C33.657 25.6627 31.416 22.9284 29.0978 20.1585C29.1248 20.0851 29.1566 20.0137 29.1929 19.9445C31.9256 16.4152 34.8694 13.0546 38.0081 9.88105C38.4777 9.41741 38.977 8.97754 39.4168 8.49607C40.4036 7.40829 40.463 6.68311 39.4763 5.65477C38.6939 4.80305 37.8048 4.05585 36.8311 3.43166C34.9052 2.24283 32.7356 1.64842 30.6017 0.923232C30.4216 0.855151 30.2227 0.855688 30.0429 0.924742C29.8632 0.993796 29.7151 1.12654 29.6268 1.29771C28.7828 2.44493 27.8912 3.55649 26.9936 4.6621C25.2103 6.86143 23.4271 9.04293 21.6439 11.2363C21.5325 11.3852 21.4294 11.54 21.3348 11.7C18.5351 8.67439 16.0385 5.63099 13.2388 2.83725C12.7477 3.07798 12.2851 3.37307 11.8598 3.71698C10.9325 4.70371 10.0766 5.73799 9.19088 6.77821C8.5192 7.58067 7.88317 8.41285 7.22932 9.2272C6.57546 10.0415 5.9751 10.7073 5.39258 11.4741C4.74467 12.336 4.79816 12.8353 5.57685 13.608C7.29095 15.4043 9.14111 17.0657 11.1108 18.5773C12.1986 19.356 13.1556 20.313 14.184 21.2106C11.4021 25.4606 8.79263 29.7048 5.59468 33.5209C4.09675 35.3041 2.71771 37.1825 1.30895 39.0311C0.714538 39.8336 0.714537 40.3507 1.44567 41.0878C1.82496 41.4759 2.24102 41.8263 2.68799 42.134C4.69186 43.4667 6.55943 44.9938 8.2636 46.6931C8.58045 46.9561 8.92531 47.1833 9.29193 47.3708C9.55838 46.7715 9.86624 46.1915 10.2133 45.6351C14.0096 40.325 17.8198 35.0327 21.6439 29.7583C21.8044 29.5383 21.9767 29.3422 22.1729 29.1044C22.375 29.2827 22.5474 29.4313 22.7138 29.5918L28.4202 35.3993C30.0053 37.0042 31.5904 38.6051 33.1755 40.2021C34.0968 41.1354 34.501 41.1354 35.6126 40.5291C37.701 39.3759 39.821 38.2683 41.9728 37.2063C43.2627 36.5643 43.5005 35.9996 42.5078 34.9356Z" fill="white"/>
</svg>
