<svg width="40" height="29" viewBox="0 0 40 29" fill="none" xmlns="http://www.w3.org/2000/svg">
<path d="M39.11 5.07633C38.8834 4.24136 38.4406 3.4799 37.8257 2.86772C37.2107 2.25555 36.4451 1.81401 35.6049 1.58707C32.4897 0.737478 20.027 0.723648 20.027 0.723648C20.027 0.723648 7.56621 0.709817 4.44902 1.52187C3.6094 1.75926 2.84532 2.20703 2.23012 2.82221C1.61493 3.43739 1.16929 4.19932 0.935973 5.03484C0.114406 8.12894 0.106448 14.5463 0.106448 14.5463C0.106448 14.5463 0.0984912 20.9953 0.914091 24.0578C1.37162 25.7511 2.71438 27.0887 4.42117 27.5451C7.56819 28.3947 19.9971 28.4085 19.9971 28.4085C19.9971 28.4085 32.4599 28.4224 35.5751 27.6123C36.4156 27.3858 37.1819 26.9452 37.7984 26.3343C38.4149 25.7234 38.8601 24.9632 39.0901 24.129C39.9137 21.0368 39.9197 14.6214 39.9197 14.6214C39.9197 14.6214 39.9594 8.17043 39.11 5.07633ZM16.0405 20.4915L16.0504 8.63672L26.4086 14.574L16.0405 20.4915Z" fill="#CC44FF" fill-opacity="0.8"/>
</svg>
