<svg width="79" height="79" viewBox="0 0 79 79" fill="none" xmlns="http://www.w3.org/2000/svg">
<g filter="url(#filter0_b_2051_1901)">
<circle cx="39.7356" cy="39.5403" r="38.9798" fill="url(#paint0_linear_2051_1901)"/>
</g>
<g clip-path="url(#clip0_2051_1901)">
<path d="M27.6 29.6114C27.3074 29.6114 27.0268 29.4952 26.8199 29.2883C26.613 29.0814 26.4968 28.8008 26.4968 28.5082C26.4968 28.2156 26.613 27.935 26.8199 27.7281C27.0268 27.5212 27.3074 27.405 27.6 27.405H51.8704C52.163 27.405 52.4436 27.5212 52.6505 27.7281C52.8574 27.935 52.9736 28.2156 52.9736 28.5082C52.9736 28.8008 52.8574 29.0814 52.6505 29.2883C52.4436 29.4952 52.163 29.6114 51.8704 29.6114H27.6ZM32.0128 25.1986C31.7202 25.1986 31.4396 25.0824 31.2327 24.8755C31.0258 24.6686 30.9096 24.388 30.9096 24.0954C30.9096 23.8028 31.0258 23.5222 31.2327 23.3153C31.4396 23.1084 31.7202 22.9922 32.0128 22.9922H47.4576C47.7502 22.9922 48.0308 23.1084 48.2377 23.3153C48.4446 23.5222 48.5608 23.8028 48.5608 24.0954C48.5608 24.388 48.4446 24.6686 48.2377 24.8755C48.0308 25.0824 47.7502 25.1986 47.4576 25.1986H32.0128ZM22.084 50.5722C22.084 51.45 22.4327 52.2918 23.0533 52.9125C23.674 53.5331 24.5158 53.8818 25.3936 53.8818H54.0768C54.9546 53.8818 55.7964 53.5331 56.4171 52.9125C57.0377 52.2918 57.3864 51.45 57.3864 50.5722V35.1274C57.3864 34.2496 57.0377 33.4078 56.4171 32.7872C55.7964 32.1665 54.9546 31.8178 54.0768 31.8178H25.3936C24.5158 31.8178 23.674 32.1665 23.0533 32.7872C22.4327 33.4078 22.084 34.2496 22.084 35.1274V50.5722ZM25.3936 51.6754C25.101 51.6754 24.8204 51.5592 24.6135 51.3523C24.4066 51.1454 24.2904 50.8648 24.2904 50.5722V35.1274C24.2904 34.8348 24.4066 34.5542 24.6135 34.3473C24.8204 34.1404 25.101 34.0242 25.3936 34.0242H54.0768C54.3694 34.0242 54.65 34.1404 54.8569 34.3473C55.0638 34.5542 55.18 34.8348 55.18 35.1274V50.5722C55.18 50.8648 55.0638 51.1454 54.8569 51.3523C54.65 51.5592 54.3694 51.6754 54.0768 51.6754H25.3936Z" fill="#00FF00"/>
</g>
<defs>
<filter id="filter0_b_2051_1901" x="-13.9535" y="-14.1488" width="107.378" height="107.378" filterUnits="userSpaceOnUse" color-interpolation-filters="sRGB">
<feFlood flood-opacity="0" result="BackgroundImageFix"/>
<feGaussianBlur in="BackgroundImageFix" stdDeviation="7.35467"/>
<feComposite in2="SourceAlpha" operator="in" result="effect1_backgroundBlur_2051_1901"/>
<feBlend mode="normal" in="SourceGraphic" in2="effect1_backgroundBlur_2051_1901" result="shape"/>
</filter>
<linearGradient id="paint0_linear_2051_1901" x1="0.755859" y1="0.560547" x2="58.1405" y2="91.5029" gradientUnits="userSpaceOnUse">
<stop stop-color="white" stop-opacity="0.1"/>
<stop offset="1" stop-color="white" stop-opacity="0.05"/>
</linearGradient>
<clipPath id="clip0_2051_1901">
<rect width="35.3024" height="35.3024" fill="white" transform="translate(22.084 21.8887)"/>
</clipPath>
</defs>
</svg>
