<svg width="79" height="79" viewBox="0 0 79 79" fill="none" xmlns="http://www.w3.org/2000/svg">
<g filter="url(#filter0_b_2051_1910)">
<circle cx="39.3235" cy="39.5403" r="38.9798" fill="url(#paint0_linear_2051_1910)"/>
</g>
<path d="M37.9492 33.662L38.2198 33.6546H49.2518C50.4727 33.6545 51.6473 34.1215 52.5348 34.9598C53.4224 35.7981 53.9555 36.9442 54.025 38.163L54.0324 38.4352V49.4672C54.0325 50.6883 53.5653 51.8631 52.7267 52.7506C51.8881 53.6382 50.7416 54.1712 49.5225 54.2404L49.2518 54.2477H38.2198C36.9988 54.2478 35.8239 53.7806 34.9364 52.942C34.0488 52.1034 33.5158 50.9569 33.4466 49.7378L33.4393 49.4686V38.4366C33.4392 37.2155 33.9064 36.0407 34.745 35.1532C35.5836 34.2656 36.7301 33.7326 37.9492 33.6634V33.662ZM49.2518 35.861H38.2198C37.5738 35.861 36.9514 36.104 36.4762 36.5416C36.001 36.9792 35.7077 37.5795 35.6545 38.2233L35.6457 38.4352V49.4672C35.6457 50.1134 35.8889 50.736 36.3268 51.2113C36.7647 51.6865 37.3654 51.9797 38.0095 52.0325L38.2198 52.0413H49.2518C49.8981 52.0413 50.5207 51.7981 50.9959 51.3602C51.4712 50.9223 51.7643 50.3216 51.8172 49.6775L51.826 49.4672V38.4352C51.826 37.7525 51.5548 37.0977 51.072 36.615C50.5893 36.1322 49.9345 35.861 49.2518 35.861ZM43.7358 38.0689C44.0284 38.0689 44.309 38.1851 44.5159 38.392C44.7228 38.5989 44.839 38.8795 44.839 39.1721V42.8465H48.5164C48.809 42.8465 49.0896 42.9627 49.2965 43.1696C49.5033 43.3765 49.6196 43.6571 49.6196 43.9497C49.6196 44.2423 49.5033 44.5229 49.2965 44.7298C49.0896 44.9367 48.809 45.0529 48.5164 45.0529H44.839V48.7332C44.839 49.0258 44.7228 49.3064 44.5159 49.5133C44.309 49.7201 44.0284 49.8364 43.7358 49.8364C43.4432 49.8364 43.1626 49.7201 42.9558 49.5133C42.7489 49.3064 42.6326 49.0258 42.6326 48.7332V45.0529H38.9553C38.6627 45.0529 38.3821 44.9367 38.1752 44.7298C37.9683 44.5229 37.8521 44.2423 37.8521 43.9497C37.8521 43.6571 37.9683 43.3765 38.1752 43.1696C38.3821 42.9627 38.6627 42.8465 38.9553 42.8465H42.6326V39.1721C42.6326 38.8795 42.7489 38.5989 42.9558 38.392C43.1626 38.1851 43.4432 38.0689 43.7358 38.0689ZM44.5919 28.1151L44.6684 28.3754L45.6878 32.1822H43.4034L42.5385 28.9462C42.4511 28.6194 42.3002 28.3132 42.0944 28.0448C41.8885 27.7764 41.6319 27.5513 41.339 27.3822C41.0461 27.2131 40.7228 27.1033 40.3875 27.0592C40.0522 27.0151 39.7115 27.0375 39.3848 27.1251L28.7294 29.9817C28.1073 30.1485 27.5704 30.5424 27.2246 31.0856C26.8788 31.6289 26.7491 32.2821 26.8613 32.9162L26.9083 33.1339L29.7649 43.7894C29.8989 44.2901 30.1809 44.7387 30.5741 45.0764C30.9672 45.4142 31.4532 45.6254 31.9684 45.6825V47.8977C31.012 47.8407 30.0948 47.4978 29.3355 46.9135C28.5763 46.3292 28.01 45.5303 27.71 44.6204L27.6335 44.3616L24.7784 33.7046C24.4622 32.5255 24.609 31.27 25.1889 30.1957C25.7687 29.1214 26.7376 28.3096 27.8968 27.9268L28.1586 27.8503L38.8141 24.9952C39.9932 24.679 41.2487 24.8258 42.323 25.4057C43.3973 25.9855 44.2091 26.9544 44.5919 28.1136V28.1151Z" fill="#00FF00"/>
<defs>
<filter id="filter0_b_2051_1910" x="-14.3656" y="-14.1488" width="107.378" height="107.378" filterUnits="userSpaceOnUse" color-interpolation-filters="sRGB">
<feFlood flood-opacity="0" result="BackgroundImageFix"/>
<feGaussianBlur in="BackgroundImageFix" stdDeviation="7.35467"/>
<feComposite in2="SourceAlpha" operator="in" result="effect1_backgroundBlur_2051_1910"/>
<feBlend mode="normal" in="SourceGraphic" in2="effect1_backgroundBlur_2051_1910" result="shape"/>
</filter>
<linearGradient id="paint0_linear_2051_1910" x1="0.34375" y1="0.560547" x2="57.7283" y2="91.5029" gradientUnits="userSpaceOnUse">
<stop stop-color="white" stop-opacity="0.1"/>
<stop offset="1" stop-color="white" stop-opacity="0.05"/>
</linearGradient>
</defs>
</svg>
