<svg width="79" height="79" viewBox="0 0 79 79" fill="none" xmlns="http://www.w3.org/2000/svg">
<g filter="url(#filter0_b_2051_1892)">
<circle cx="39.1165" cy="39.5403" r="38.9798" fill="url(#paint0_linear_2051_1892)"/>
</g>
<path d="M52.8456 36.5974H51.865V30.7137C51.865 30.4536 51.7616 30.2042 51.5777 30.0203C51.3938 29.8364 51.1444 29.733 50.8843 29.733H27.3494C27.1172 29.7368 26.8912 29.6581 26.7116 29.5108C26.532 29.3636 26.4105 29.1574 26.3688 28.9289V28.5759C26.4105 28.3475 26.532 28.1413 26.7116 27.994C26.8912 27.8467 27.1172 27.768 27.3494 27.7718H50.4725C50.7325 27.7718 50.982 27.6685 51.1659 27.4846C51.3498 27.3007 51.4531 27.0512 51.4531 26.7912C51.4531 26.5311 51.3498 26.2817 51.1659 26.0978C50.982 25.9139 50.7325 25.8105 50.4725 25.8105H27.3494C26.5691 25.8105 25.8209 26.1205 25.2692 26.6722C24.7175 27.2239 24.4075 27.9722 24.4075 28.7524C24.4006 28.87 24.4006 28.9879 24.4075 29.1054V49.2769C24.4114 49.8048 24.5192 50.3269 24.7248 50.8132C24.9304 51.2996 25.2298 51.7406 25.6059 52.1112C25.9819 52.4818 26.4273 52.7747 26.9166 52.9732C27.4059 53.1717 27.9295 53.2719 28.4575 53.268H50.8843C51.1444 53.268 51.3938 53.1647 51.5777 52.9808C51.7616 52.7969 51.865 52.5474 51.865 52.2874V46.4036H52.8456C53.1057 46.4036 53.3551 46.3003 53.539 46.1164C53.7229 45.9325 53.8262 45.6831 53.8262 45.423V37.578C53.8262 37.3179 53.7229 37.0685 53.539 36.8846C53.3551 36.7007 53.1057 36.5974 52.8456 36.5974ZM49.9037 51.3067H28.4575C27.9121 51.312 27.3866 51.1017 26.9955 50.7216C26.6043 50.3414 26.3791 49.8222 26.3688 49.2769V31.5766C26.6871 31.6689 27.0183 31.7086 27.3494 31.6943H49.9037V36.5974H43.0393C41.739 36.5974 40.4918 37.114 39.5723 38.0335C38.6528 38.953 38.1362 40.2001 38.1362 41.5005C38.1362 42.8009 38.6528 44.048 39.5723 44.9675C40.4918 45.8871 41.739 46.4036 43.0393 46.4036H49.9037V51.3067ZM51.865 44.4424H43.0393C42.2591 44.4424 41.5108 44.1324 40.9591 43.5807C40.4074 43.029 40.0975 42.2807 40.0975 41.5005C40.0975 40.7203 40.4074 39.972 40.9591 39.4203C41.5108 38.8686 42.2591 38.5586 43.0393 38.5586H51.865V44.4424Z" fill="#00FF00"/>
<path d="M44.0295 42.9731C44.8419 42.9731 45.5005 42.3146 45.5005 41.5022C45.5005 40.6898 44.8419 40.0312 44.0295 40.0312C43.2172 40.0312 42.5586 40.6898 42.5586 41.5022C42.5586 42.3146 43.2172 42.9731 44.0295 42.9731Z" fill="#908294"/>
<defs>
<filter id="filter0_b_2051_1892" x="-14.5726" y="-14.1488" width="107.378" height="107.378" filterUnits="userSpaceOnUse" color-interpolation-filters="sRGB">
<feFlood flood-opacity="0" result="BackgroundImageFix"/>
<feGaussianBlur in="BackgroundImageFix" stdDeviation="7.35467"/>
<feComposite in2="SourceAlpha" operator="in" result="effect1_backgroundBlur_2051_1892"/>
<feBlend mode="normal" in="SourceGraphic" in2="effect1_backgroundBlur_2051_1892" result="shape"/>
</filter>
<linearGradient id="paint0_linear_2051_1892" x1="0.136719" y1="0.560547" x2="57.5213" y2="91.5029" gradientUnits="userSpaceOnUse">
<stop stop-color="white" stop-opacity="0.1"/>
<stop offset="1" stop-color="white" stop-opacity="0.05"/>
</linearGradient>
</defs>
</svg>
