<svg width="79" height="79" viewBox="0 0 79 79" fill="none" xmlns="http://www.w3.org/2000/svg">
<g filter="url(#filter0_b_444_963)">
<circle cx="39.7356" cy="39.6028" r="38.9798" fill="url(#paint0_linear_444_963)"/>
</g>
<g clip-path="url(#clip0_444_963)">
<path d="M27.6 29.6739C27.3074 29.6739 27.0268 29.5577 26.8199 29.3508C26.613 29.1439 26.4968 28.8633 26.4968 28.5707C26.4968 28.2781 26.613 27.9975 26.8199 27.7906C27.0268 27.5837 27.3074 27.4675 27.6 27.4675H51.8704C52.163 27.4675 52.4436 27.5837 52.6505 27.7906C52.8574 27.9975 52.9736 28.2781 52.9736 28.5707C52.9736 28.8633 52.8574 29.1439 52.6505 29.3508C52.4436 29.5577 52.163 29.6739 51.8704 29.6739H27.6ZM32.0128 25.2611C31.7202 25.2611 31.4396 25.1449 31.2327 24.938C31.0258 24.7311 30.9096 24.4505 30.9096 24.1579C30.9096 23.8653 31.0258 23.5847 31.2327 23.3778C31.4396 23.1709 31.7202 23.0547 32.0128 23.0547H47.4576C47.7502 23.0547 48.0308 23.1709 48.2377 23.3778C48.4446 23.5847 48.5608 23.8653 48.5608 24.1579C48.5608 24.4505 48.4446 24.7311 48.2377 24.938C48.0308 25.1449 47.7502 25.2611 47.4576 25.2611H32.0128ZM22.084 50.6347C22.084 51.5125 22.4327 52.3543 23.0533 52.975C23.674 53.5956 24.5158 53.9443 25.3936 53.9443H54.0768C54.9546 53.9443 55.7964 53.5956 56.4171 52.975C57.0377 52.3543 57.3864 51.5125 57.3864 50.6347V35.1899C57.3864 34.3121 57.0377 33.4703 56.4171 32.8497C55.7964 32.229 54.9546 31.8803 54.0768 31.8803H25.3936C24.5158 31.8803 23.674 32.229 23.0533 32.8497C22.4327 33.4703 22.084 34.3121 22.084 35.1899V50.6347ZM25.3936 51.7379C25.101 51.7379 24.8204 51.6217 24.6135 51.4148C24.4066 51.2079 24.2904 50.9273 24.2904 50.6347V35.1899C24.2904 34.8973 24.4066 34.6167 24.6135 34.4098C24.8204 34.2029 25.101 34.0867 25.3936 34.0867H54.0768C54.3694 34.0867 54.65 34.2029 54.8569 34.4098C55.0638 34.6167 55.18 34.8973 55.18 35.1899V50.6347C55.18 50.9273 55.0638 51.2079 54.8569 51.4148C54.65 51.6217 54.3694 51.7379 54.0768 51.7379H25.3936Z" fill="#65FF9E"/>
</g>
<defs>
<filter id="filter0_b_444_963" x="-13.9535" y="-14.0863" width="107.378" height="107.378" filterUnits="userSpaceOnUse" color-interpolation-filters="sRGB">
<feFlood flood-opacity="0" result="BackgroundImageFix"/>
<feGaussianBlur in="BackgroundImageFix" stdDeviation="7.35467"/>
<feComposite in2="SourceAlpha" operator="in" result="effect1_backgroundBlur_444_963"/>
<feBlend mode="normal" in="SourceGraphic" in2="effect1_backgroundBlur_444_963" result="shape"/>
</filter>
<linearGradient id="paint0_linear_444_963" x1="0.755859" y1="0.623047" x2="58.1405" y2="91.5654" gradientUnits="userSpaceOnUse">
<stop stop-color="white" stop-opacity="0.1"/>
<stop offset="1" stop-color="white" stop-opacity="0.05"/>
</linearGradient>
<clipPath id="clip0_444_963">
<rect width="35.3024" height="35.3024" fill="white" transform="translate(22.084 21.9512)"/>
</clipPath>
</defs>
</svg>
