<svg width="79" height="79" viewBox="0 0 79 79" fill="none" xmlns="http://www.w3.org/2000/svg">
<g filter="url(#filter0_b_444_954)">
<circle cx="39.1165" cy="39.6028" r="38.9798" fill="url(#paint0_linear_444_954)"/>
</g>
<path d="M52.8456 36.6599H51.865V30.7762C51.865 30.5161 51.7616 30.2667 51.5777 30.0828C51.3938 29.8989 51.1444 29.7955 50.8843 29.7955H27.3494C27.1172 29.7993 26.8912 29.7206 26.7116 29.5733C26.532 29.4261 26.4105 29.2199 26.3688 28.9914V28.6384C26.4105 28.41 26.532 28.2038 26.7116 28.0565C26.8912 27.9092 27.1172 27.8305 27.3494 27.8343H50.4725C50.7325 27.8343 50.982 27.731 51.1659 27.5471C51.3498 27.3632 51.4531 27.1137 51.4531 26.8537C51.4531 26.5936 51.3498 26.3442 51.1659 26.1603C50.982 25.9764 50.7325 25.873 50.4725 25.873H27.3494C26.5691 25.873 25.8209 26.183 25.2692 26.7347C24.7175 27.2864 24.4075 28.0347 24.4075 28.8149C24.4006 28.9325 24.4006 29.0504 24.4075 29.1679V49.3394C24.4114 49.8673 24.5192 50.3894 24.7248 50.8757C24.9304 51.3621 25.2298 51.8031 25.6059 52.1737C25.9819 52.5443 26.4273 52.8372 26.9166 53.0357C27.4059 53.2342 27.9295 53.3344 28.4575 53.3305H50.8843C51.1444 53.3305 51.3938 53.2272 51.5777 53.0433C51.7616 52.8594 51.865 52.6099 51.865 52.3499V46.4661H52.8456C53.1057 46.4661 53.3551 46.3628 53.539 46.1789C53.7229 45.995 53.8262 45.7456 53.8262 45.4855V37.6405C53.8262 37.3804 53.7229 37.131 53.539 36.9471C53.3551 36.7632 53.1057 36.6599 52.8456 36.6599ZM49.9037 51.3692H28.4575C27.9121 51.3745 27.3866 51.1642 26.9955 50.7841C26.6043 50.4039 26.3791 49.8847 26.3688 49.3394V31.6391C26.6871 31.7314 27.0183 31.7711 27.3494 31.7568H49.9037V36.6599H43.0393C41.739 36.6599 40.4918 37.1765 39.5723 38.096C38.6528 39.0155 38.1362 40.2626 38.1362 41.563C38.1362 42.8634 38.6528 44.1105 39.5723 45.03C40.4918 45.9496 41.739 46.4661 43.0393 46.4661H49.9037V51.3692ZM51.865 44.5049H43.0393C42.2591 44.5049 41.5108 44.1949 40.9591 43.6432C40.4074 43.0915 40.0975 42.3432 40.0975 41.563C40.0975 40.7828 40.4074 40.0345 40.9591 39.4828C41.5108 38.9311 42.2591 38.6211 43.0393 38.6211H51.865V44.5049Z" fill="#65FF9E"/>
<path d="M44.0295 43.0356C44.8419 43.0356 45.5005 42.3771 45.5005 41.5647C45.5005 40.7523 44.8419 40.0938 44.0295 40.0938C43.2172 40.0938 42.5586 40.7523 42.5586 41.5647C42.5586 42.3771 43.2172 43.0356 44.0295 43.0356Z" fill="#908294"/>
<defs>
<filter id="filter0_b_444_954" x="-14.5726" y="-14.0863" width="107.378" height="107.378" filterUnits="userSpaceOnUse" color-interpolation-filters="sRGB">
<feFlood flood-opacity="0" result="BackgroundImageFix"/>
<feGaussianBlur in="BackgroundImageFix" stdDeviation="7.35467"/>
<feComposite in2="SourceAlpha" operator="in" result="effect1_backgroundBlur_444_954"/>
<feBlend mode="normal" in="SourceGraphic" in2="effect1_backgroundBlur_444_954" result="shape"/>
</filter>
<linearGradient id="paint0_linear_444_954" x1="0.136719" y1="0.623047" x2="57.5213" y2="91.5654" gradientUnits="userSpaceOnUse">
<stop stop-color="white" stop-opacity="0.1"/>
<stop offset="1" stop-color="white" stop-opacity="0.05"/>
</linearGradient>
</defs>
</svg>
