<svg width="98" height="10" viewBox="0 0 98 10" fill="none" xmlns="http://www.w3.org/2000/svg">
<path d="M1.44922 4.45789C1.04303 4.45789 0.713751 4.78717 0.713751 5.19336C0.713751 5.59955 1.04303 5.92883 1.44922 5.92883L1.44922 4.45789ZM97.6289 5.19336L93.3827 0.947136L89.1364 5.19336L93.3827 9.43958L97.6289 5.19336ZM6.04589 5.92883C6.45208 5.92883 6.78136 5.59955 6.78136 5.19336C6.78136 4.78717 6.45208 4.45789 6.04589 4.45789V5.92883ZM15.2392 4.45789C14.833 4.45789 14.5038 4.78717 14.5038 5.19336C14.5038 5.59955 14.833 5.92883 15.2392 5.92883V4.45789ZM24.4326 5.92883C24.8388 5.92883 25.168 5.59955 25.168 5.19336C25.168 4.78717 24.8388 4.45789 24.4326 4.45789V5.92883ZM33.6259 4.45789C33.2197 4.45789 32.8905 4.78717 32.8905 5.19336C32.8905 5.59955 33.2197 5.92883 33.6259 5.92883V4.45789ZM42.8193 5.92883C43.2254 5.92883 43.5547 5.59955 43.5547 5.19336C43.5547 4.78717 43.2254 4.45789 42.8193 4.45789V5.92883ZM52.0126 4.45789C51.6064 4.45789 51.2771 4.78717 51.2771 5.19336C51.2771 5.59955 51.6064 5.92883 52.0126 5.92883V4.45789ZM61.206 5.92883C61.6121 5.92883 61.9414 5.59955 61.9414 5.19336C61.9414 4.78717 61.6121 4.45789 61.206 4.45789V5.92883ZM70.3993 4.45789C69.9931 4.45789 69.6638 4.78717 69.6638 5.19336C69.6638 5.59955 69.9931 5.92883 70.3993 5.92883V4.45789ZM79.5926 5.92883C79.9988 5.92883 80.3281 5.59955 80.3281 5.19336C80.3281 4.78717 79.9988 4.45789 79.5926 4.45789V5.92883ZM88.786 4.45789C88.3798 4.45789 88.0505 4.78717 88.0505 5.19336C88.0505 5.59955 88.3798 5.92883 88.786 5.92883V4.45789ZM1.44922 5.92883L6.04589 5.92883V4.45789L1.44922 4.45789L1.44922 5.92883ZM15.2392 5.92883L24.4326 5.92883V4.45789L15.2392 4.45789V5.92883ZM33.6259 5.92883L42.8193 5.92883V4.45789L33.6259 4.45789V5.92883ZM52.0126 5.92883L61.206 5.92883V4.45789L52.0126 4.45789V5.92883ZM70.3993 5.92883L79.5926 5.92883V4.45789L70.3993 4.45789V5.92883ZM88.786 5.92883L93.3827 5.92883V4.45789L88.786 4.45789V5.92883Z" fill="white"/>
</svg>
