<svg width="79" height="79" viewBox="0 0 79 79" fill="none" xmlns="http://www.w3.org/2000/svg">
<g filter="url(#filter0_b_444_972)">
<circle cx="39.3235" cy="39.6028" r="38.9798" fill="url(#paint0_linear_444_972)"/>
</g>
<path d="M37.9492 33.7245L38.2198 33.7171H49.2518C50.4727 33.717 51.6473 34.184 52.5348 35.0223C53.4224 35.8606 53.9555 37.0067 54.025 38.2255L54.0324 38.4977V49.5297C54.0325 50.7508 53.5653 51.9256 52.7267 52.8131C51.8881 53.7007 50.7416 54.2337 49.5225 54.3029L49.2518 54.3102H38.2198C36.9988 54.3103 35.8239 53.8431 34.9364 53.0045C34.0488 52.1659 33.5158 51.0194 33.4466 49.8003L33.4393 49.5311V38.4991C33.4392 37.278 33.9064 36.1032 34.745 35.2157C35.5836 34.3281 36.7301 33.7951 37.9492 33.7259V33.7245ZM49.2518 35.9235H38.2198C37.5738 35.9235 36.9514 36.1665 36.4762 36.6041C36.001 37.0417 35.7077 37.642 35.6545 38.2858L35.6457 38.4977V49.5297C35.6457 50.1759 35.8889 50.7985 36.3268 51.2738C36.7647 51.749 37.3654 52.0422 38.0095 52.095L38.2198 52.1038H49.2518C49.8981 52.1038 50.5207 51.8606 50.9959 51.4227C51.4712 50.9848 51.7643 50.3841 51.8172 49.74L51.826 49.5297V38.4977C51.826 37.815 51.5548 37.1602 51.072 36.6775C50.5893 36.1947 49.9345 35.9235 49.2518 35.9235ZM43.7358 38.1314C44.0284 38.1314 44.309 38.2476 44.5159 38.4545C44.7228 38.6614 44.839 38.942 44.839 39.2346V42.909H48.5164C48.809 42.909 49.0896 43.0252 49.2965 43.2321C49.5033 43.439 49.6196 43.7196 49.6196 44.0122C49.6196 44.3048 49.5033 44.5854 49.2965 44.7923C49.0896 44.9992 48.809 45.1154 48.5164 45.1154H44.839V48.7957C44.839 49.0883 44.7228 49.3689 44.5159 49.5758C44.309 49.7826 44.0284 49.8989 43.7358 49.8989C43.4432 49.8989 43.1626 49.7826 42.9558 49.5758C42.7489 49.3689 42.6326 49.0883 42.6326 48.7957V45.1154H38.9553C38.6627 45.1154 38.3821 44.9992 38.1752 44.7923C37.9683 44.5854 37.8521 44.3048 37.8521 44.0122C37.8521 43.7196 37.9683 43.439 38.1752 43.2321C38.3821 43.0252 38.6627 42.909 38.9553 42.909H42.6326V39.2346C42.6326 38.942 42.7489 38.6614 42.9558 38.4545C43.1626 38.2476 43.4432 38.1314 43.7358 38.1314ZM44.5919 28.1776L44.6684 28.4379L45.6878 32.2447H43.4034L42.5385 29.0087C42.4511 28.6819 42.3002 28.3757 42.0944 28.1073C41.8885 27.8389 41.6319 27.6138 41.339 27.4447C41.0461 27.2756 40.7228 27.1658 40.3875 27.1217C40.0522 27.0776 39.7115 27.1 39.3848 27.1876L28.7294 30.0442C28.1073 30.211 27.5704 30.6049 27.2246 31.1481C26.8788 31.6914 26.7491 32.3446 26.8613 32.9787L26.9083 33.1964L29.7649 43.8519C29.8989 44.3526 30.1809 44.8012 30.5741 45.1389C30.9672 45.4767 31.4532 45.6879 31.9684 45.745V47.9602C31.012 47.9032 30.0948 47.5603 29.3355 46.976C28.5763 46.3917 28.01 45.5928 27.71 44.6829L27.6335 44.4241L24.7784 33.7671C24.4622 32.588 24.609 31.3325 25.1889 30.2582C25.7687 29.1839 26.7376 28.3721 27.8968 27.9893L28.1586 27.9128L38.8141 25.0577C39.9932 24.7415 41.2487 24.8883 42.323 25.4682C43.3973 26.048 44.2091 27.0169 44.5919 28.1761V28.1776Z" fill="#65FF9E"/>
<defs>
<filter id="filter0_b_444_972" x="-14.3656" y="-14.0863" width="107.378" height="107.378" filterUnits="userSpaceOnUse" color-interpolation-filters="sRGB">
<feFlood flood-opacity="0" result="BackgroundImageFix"/>
<feGaussianBlur in="BackgroundImageFix" stdDeviation="7.35467"/>
<feComposite in2="SourceAlpha" operator="in" result="effect1_backgroundBlur_444_972"/>
<feBlend mode="normal" in="SourceGraphic" in2="effect1_backgroundBlur_444_972" result="shape"/>
</filter>
<linearGradient id="paint0_linear_444_972" x1="0.34375" y1="0.623047" x2="57.7283" y2="91.5654" gradientUnits="userSpaceOnUse">
<stop stop-color="white" stop-opacity="0.1"/>
<stop offset="1" stop-color="white" stop-opacity="0.05"/>
</linearGradient>
</defs>
</svg>
